<?xml version="1.0" standalone="no"?>
<!DOCTYPE svg PUBLIC "-//W3C//DTD SVG 20010904//EN"
 "http://www.w3.org/TR/2001/REC-SVG-20010904/DTD/svg10.dtd">
<svg version="1.0" xmlns="http://www.w3.org/2000/svg"
 width="600.000000pt" height="184.000000pt" viewBox="0 0 600.000000 184.000000"
 preserveAspectRatio="xMidYMid meet">
<metadata>
Created by potrace 1.16, written by Peter Selinger 2001-2019
</metadata>
<g transform="translate(0.000000,184.000000) scale(0.100000,-0.100000)"
fill="#000000" stroke="none">
<path d="M361 1207 c-6 -8 -9 -16 -6 -19 3 -2 -1 -5 -8 -5 -17 0 -67 -33 -67
-45 0 -10 80 -118 87 -118 15 0 43 23 38 30 -4 6 1 7 11 3 13 -5 15 -3 9 7 -5
8 -4 11 3 6 6 -4 29 6 51 22 l40 29 -37 35 c-70 66 -100 80 -121 55z"/>
<path d="M187 1098 c-15 -5 -25 -13 -22 -18 3 -4 -4 -6 -15 -3 -14 4 -20 0
-20 -11 0 -15 -16 -21 -46 -17 -7 1 -15 -6 -18 -15 -4 -11 -2 -15 7 -11 7 3
41 13 76 22 62 18 62 18 77 -4 9 -12 20 -18 26 -15 6 4 8 2 5 -4 -10 -14 71
-114 85 -106 7 4 8 3 4 -5 -5 -7 35 -64 101 -146 101 -127 123 -149 123 -125
0 6 -4 10 -10 10 -5 0 -10 5 -10 10 0 6 12 10 26 10 36 0 59 15 82 52 18 28
19 40 11 82 -5 27 -11 51 -14 54 -5 6 -176 -47 -191 -59 -14 -11 -74 52 -103
108 -11 21 -29 44 -41 51 -15 9 -19 19 -14 34 4 12 2 18 -4 14 -5 -3 -9 2 -8
12 0 9 -5 16 -12 14 -8 -1 -11 2 -8 7 6 9 -40 72 -52 70 -4 0 -19 -5 -35 -11z"/>
<path d="M471 1030 c-40 -27 -75 -51 -77 -53 -3 -3 40 -109 50 -124 6 -8 196
60 196 70 0 22 -68 132 -80 129 -6 -1 -9 2 -6 7 16 26 -16 14 -83 -29z"/>
<path d="M5050 793 c0 -6 -3 -20 -7 -30 -5 -15 -2 -15 19 5 13 12 34 22 46 22
21 0 22 -4 22 -99 0 -86 -2 -100 -17 -104 -10 -3 11 -5 47 -5 49 -1 59 2 42 8
-22 9 -23 14 -20 102 3 92 3 93 30 96 18 2 31 -4 42 -20 l16 -22 0 22 c0 13 6
22 15 22 12 0 15 -16 15 -80 0 -73 3 -83 25 -105 31 -32 110 -35 146 -6 20 16
24 30 27 97 3 58 8 82 20 92 13 10 8 12 -34 11 -39 0 -45 -2 -26 -9 20 -9 22
-16 22 -85 0 -62 -4 -79 -20 -95 -26 -26 -64 -26 -90 0 -28 28 -30 163 -2 179
13 8 6 11 -33 11 -27 0 -103 2 -168 3 -84 1 -117 -1 -117 -10z"/>
<path d="M4004 784 c12 -11 16 -36 16 -92 0 -80 -5 -95 -30 -105 -8 -3 14 -5
50 -5 36 0 57 2 48 5 -13 3 -18 15 -18 44 0 21 -1 42 -2 47 -6 15 45 13 63 -4
18 -17 19 -16 19 22 -1 31 -3 36 -11 22 -6 -11 -22 -18 -39 -18 -29 0 -30 2
-30 45 0 44 0 45 34 45 23 0 38 -7 49 -22 l16 -23 0 23 c1 12 7 22 15 22 11 0
15 -21 17 -86 4 -76 7 -88 28 -105 36 -29 115 -26 146 6 22 21 25 33 25 92 0
79 8 96 41 91 23 -3 24 -7 27 -93 2 -76 0 -92 -14 -102 -15 -11 -10 -13 35
-13 48 0 51 1 37 16 -19 18 -21 70 -4 80 6 4 19 -3 29 -17 63 -84 54 -79 132
-78 40 0 65 3 57 6 -8 3 -18 11 -22 17 -10 15 -10 146 0 145 4 0 41 -38 82
-85 41 -46 78 -84 82 -84 4 0 8 37 8 83 0 111 6 129 39 125 26 -3 26 -4 29
-93 2 -76 0 -92 -14 -102 -15 -11 -9 -13 42 -13 45 1 55 3 42 11 -26 15 -26
183 0 198 12 8 -12 10 -88 10 -58 -1 -98 -3 -89 -6 10 -2 20 -14 23 -26 9 -35
7 -107 -3 -107 -5 0 -38 31 -73 70 -58 64 -66 70 -102 70 -35 0 -38 -2 -22
-13 14 -10 16 -26 14 -102 -4 -110 -19 -121 -66 -48 l-31 47 25 22 c30 29 30
39 -1 69 -23 24 -29 25 -152 24 -87 0 -121 -3 -105 -9 20 -9 22 -16 22 -85 0
-62 -4 -79 -20 -95 -23 -23 -58 -26 -85 -6 -29 21 -36 163 -9 183 15 11 -5 13
-130 13 -134 0 -146 -1 -132 -16z"/>
<path d="M5553 789 c14 -8 17 -25 17 -99 0 -74 -3 -91 -17 -99 -14 -8 -3 -10
42 -10 33 1 52 3 43 6 -14 3 -18 15 -18 49 0 57 16 56 55 -4 l30 -47 124 -3
c127 -3 140 1 141 37 0 10 -7 8 -24 -8 -17 -16 -33 -22 -57 -19 -33 3 -34 5
-37 51 -3 45 -2 47 24 47 15 0 33 -8 40 -17 12 -16 13 -14 14 21 0 37 -1 38
-18 23 -10 -10 -28 -17 -40 -17 -19 0 -22 5 -22 45 0 45 0 45 35 45 24 0 39
-6 47 -20 17 -27 26 -25 20 5 -4 25 -6 25 -96 25 -67 -1 -86 -3 -73 -11 24
-14 26 -186 1 -196 -19 -7 -58 29 -75 69 -11 26 -10 31 10 44 28 20 27 48 -5
73 -22 17 -41 21 -103 21 -56 -1 -72 -3 -58 -11z"/>
</g>
</svg>
